<svg xmlns="http://www.w3.org/2000/svg" xmlns:xlink="http://www.w3.org/1999/xlink" version="1.1" viewBox="155.06 45 43.71 36">
<path transform="matrix(1,0,0,-1,0,792)" d="M155.056 747H198.765V711H155.056Z" fill="#009ada"/>
<path transform="matrix(1,0,0,-1,171.5683,63.765077)" d="M0 0-1.312 4.753-2.713 0ZM-6.65-3.512-3.014 7.395H.603L4.097-3.512H5.09C5.149-3.7 5.193-3.887 5.223-4.07 5.252-4.253 5.267-4.428 5.267-4.593 5.267-4.759 5.252-4.936 5.223-5.125 5.193-5.315 5.149-5.504 5.09-5.693H-.071C-.13-5.527-.174-5.353-.204-5.169-.234-4.986-.248-4.818-.248-4.664-.248-4.51-.234-4.345-.204-4.168-.174-3.99-.13-3.819-.071-3.653H.993L.515-1.987H-3.281L-3.795-3.653H-2.713C-2.654-3.819-2.61-3.99-2.58-4.168-2.551-4.345-2.536-4.51-2.536-4.664-2.536-4.818-2.551-4.986-2.58-5.169-2.61-5.353-2.654-5.527-2.713-5.693H-7.732C-7.791-5.504-7.835-5.315-7.865-5.125-7.895-4.936-7.909-4.759-7.909-4.593-7.909-4.428-7.895-4.253-7.865-4.07-7.835-3.887-7.791-3.7-7.732-3.512Z" fill="#ffffff"/>
<path transform="matrix(1,0,0,-1,183.9982,62.151796)" d="M0 0C.544 0 .963 .142 1.259 .426 1.554 .709 1.703 1.147 1.703 1.739 1.703 2.27 1.558 2.679 1.268 2.962 .978 3.246 .574 3.388 .053 3.388H-1.667V0ZM-4.646-5.125V3.441H-5.746C-5.805 3.63-5.849 3.816-5.879 4-5.908 4.183-5.923 4.357-5.923 4.523-5.923 4.688-5.908 4.866-5.879 5.055-5.849 5.244-5.805 5.433-5.746 5.622H.656C1.33 5.622 1.924 5.522 2.439 5.32 2.953 5.119 3.384 4.845 3.733 4.496 4.082 4.147 4.345 3.739 4.522 3.272 4.699 2.805 4.788 2.3 4.788 1.756 4.788 1.295 4.72 .828 4.585 .355 4.448-.118 4.218-.543 3.893-.922 3.568-1.3 3.142-1.61 2.616-1.853 2.09-2.096 1.437-2.216 .656-2.216H-1.667V-5.125H-.319C-.26-5.314-.216-5.5-.186-5.683-.157-5.866-.142-6.041-.142-6.206-.142-6.373-.157-6.549-.186-6.738-.216-6.928-.26-7.117-.319-7.306H-5.746C-5.805-7.117-5.849-6.928-5.879-6.738-5.908-6.549-5.923-6.373-5.923-6.206-5.923-6.041-5.908-5.866-5.879-5.683-5.849-5.5-5.805-5.314-5.746-5.125Z" fill="#ffffff"/>
<path transform="matrix(1,0,0,-1,190.7259,57.566286)" d="M0 0C.07 0 .124 .019 .16 .058 .197 .097 .215 .148 .215 .212 .215 .27 .198 .317 .162 .354 .127 .392 .076 .41 .01 .41H-.225V0ZM-.49-.615V.421H-.593C-.602 .451-.607 .475-.609 .49-.612 .505-.612 .521-.612 .537-.612 .548-.612 .561-.609 .576-.607 .592-.602 .614-.593 .646H.053C.121 .646 .184 .634 .242 .612 .299 .591 .348 .559 .389 .52 .43 .48 .461 .434 .483 .381 .505 .328 .516 .272 .516 .212 .516 .141 .5 .066 .467-.011 .433-.09 .369-.152 .274-.198L.463-.615H.569C.58-.647 .586-.669 .587-.686 .589-.701 .589-.716 .589-.731 .589-.743 .588-.755 .586-.769 .584-.784 .577-.805 .566-.834H.252L-.01-.235H-.225V-.615H-.099C-.091-.647-.085-.669-.083-.686-.081-.701-.08-.716-.08-.731-.08-.743-.081-.756-.083-.771-.085-.786-.092-.809-.103-.838H-.593C-.602-.809-.607-.786-.609-.771-.612-.756-.612-.743-.612-.731-.612-.716-.612-.701-.609-.686-.607-.669-.602-.647-.593-.615ZM-.037-1.083C.096-1.083 .22-1.058 .336-1.007 .452-.958 .553-.89 .639-.802 .725-.716 .792-.612 .841-.492 .889-.371 .913-.239 .913-.096 .913 .043 .889 .172 .841 .292 .792 .41 .725 .514 .639 .601 .553 .688 .452 .757 .336 .806 .22 .856 .096 .881-.037 .881-.171 .881-.297 .856-.414 .806-.531 .757-.632 .688-.718 .601-.805 .514-.872 .41-.921 .292-.969 .172-.993 .043-.993-.096-.993-.239-.969-.371-.921-.492-.872-.612-.805-.716-.718-.802-.632-.89-.531-.958-.414-1.007-.297-1.058-.171-1.083-.037-1.083M-1.321-.096C-1.321 .085-1.287 .253-1.218 .407-1.15 .562-1.057 .695-.941 .808-.823 .92-.687 1.008-.531 1.071-.376 1.134-.211 1.165-.037 1.165 .136 1.165 .299 1.134 .453 1.071 .608 1.008 .744 .92 .861 .808 .978 .695 1.07 .562 1.139 .407 1.207 .253 1.242 .085 1.242-.096 1.242-.279 1.207-.448 1.139-.604 1.07-.76 .978-.894 .861-1.007 .744-1.119 .608-1.207 .453-1.271 .299-1.335 .136-1.367-.037-1.367-.211-1.367-.376-1.335-.531-1.271-.687-1.207-.823-1.119-.941-1.007-1.057-.894-1.15-.76-1.218-.604-1.287-.448-1.321-.279-1.321-.096" fill="#ffffff"/>
</svg>